<?xml version="1.0" encoding="utf-8"?>
<!-- Generator: Adobe Illustrator 16.0.0, SVG Export Plug-In . SVG Version: 6.00 Build 0)  -->
<!DOCTYPE svg PUBLIC "-//W3C//DTD SVG 1.1//EN" "http://www.w3.org/Graphics/SVG/1.1/DTD/svg11.dtd">
<svg version="1.1" id="Layer_1" xmlns="http://www.w3.org/2000/svg" xmlns:xlink="http://www.w3.org/1999/xlink" x="0px" y="0px"
	 width="118px" height="118px" viewBox="0 0 118 118" enable-background="new 0 0 118 118" xml:space="preserve">
<g>
	<g>
		<circle fill="#27DC95" cx="-164.437" cy="-75.778" r="52"/>
		
			<circle fill="none" stroke="#FFFFFF" stroke-width="2" stroke-miterlimit="10" stroke-dasharray="6.0489,6.0489" cx="-164.437" cy="-75.778" r="52"/>
	</g>
	<g>
		<g>
			<path fill="#FFFFFF" d="M-144.414-97.026c-5.02-5.021-11.678-7.784-18.774-7.784s-13.754,2.763-18.774,7.784
				c-9.7,9.702-10.374,25.237-1.673,35.716c-0.853,1.719-2.223,3.717-4.255,4.717c-0.977,0.482-1.527,1.526-1.358,2.606
				c0.169,1.077,0.999,1.921,2.078,2.088c0.504,0.079,1.223,0.158,2.099,0.158c2.347,0,5.806-0.551,9.342-3.101
				c3.94,2.123,8.253,3.156,12.53,3.156c6.872,0,13.678-2.661,18.797-7.785c5.019-5.019,7.78-11.68,7.78-18.777
				S-139.396-92.008-144.414-97.026z M-146.558-61.614c-7.58,7.582-19.313,9.085-28.541,3.661c-0.609-0.358-1.36-0.246-1.843,0.236
				c-0.046,0.021-0.091,0.055-0.123,0.09c-3.045,2.359-6.03,2.853-8.007,2.853h-0.011c2.28-1.661,3.717-4.133,4.559-6.054
				c0.134-0.325,0.156-0.662,0.079-0.978c-0.033-0.302-0.158-0.605-0.37-0.853c-8.22-9.288-7.793-23.441,0.987-32.224
				c9.173-9.174,24.097-9.174,33.257,0C-137.384-85.705-137.384-70.789-146.558-61.614z M-163.188-80.112
				c-1.029,0-1.864,0.835-1.864,1.864c0,1.031,0.835,1.863,1.864,1.863s1.864-0.832,1.864-1.863
				C-161.324-79.277-162.159-80.112-163.188-80.112z M-153.577-80.112c-1.029,0-1.864,0.835-1.864,1.864
				c0,1.031,0.835,1.863,1.864,1.863s1.864-0.832,1.864-1.863C-151.712-79.277-152.547-80.112-153.577-80.112z M-172.8-80.112
				c-1.029,0-1.863,0.835-1.863,1.864c0,1.031,0.834,1.863,1.863,1.863s1.865-0.832,1.865-1.863
				C-170.935-79.277-171.771-80.112-172.8-80.112z"/>
		</g>
	</g>
</g>
<g>
	<g>
		<circle fill="#27DC95" cx="-161.667" cy="59" r="52"/>
		
			<circle fill="none" stroke="#FFFFFF" stroke-width="2" stroke-miterlimit="10" stroke-dasharray="6.0489,6.0489" cx="-161.667" cy="59" r="52"/>
	</g>
	<g>
		<g>
			<g>
				<path fill="#FFFFFF" d="M-149.387,30.513l-4.236-4.238c-0.443-0.379-1.113-0.328-1.493,0.116c-0.338,0.398-0.338,0.981,0,1.377
					l1.717,1.717l1.249,0.72h-7.51c-0.583,0-1.058,0.474-1.058,1.059c0,0.584,0.475,1.059,1.058,1.059h7.51l-1.154,0.613
					l-1.812,1.812c-0.444,0.379-0.495,1.05-0.114,1.494c0.379,0.444,1.049,0.496,1.492,0.114c0.041-0.035,0.081-0.074,0.115-0.114
					l4.236-4.238C-148.977,31.592-148.977,30.925-149.387,30.513z"/>
			</g>
		</g>
		<g>
			<g>
				<path fill="#FFFFFF" d="M-172.367,30.205h-5.297c-0.584,0-1.059,0.474-1.059,1.059c0,0.584,0.474,1.059,1.059,1.059h5.297
					c0.584,0,1.058-0.475,1.058-1.059C-171.309,30.679-171.783,30.205-172.367,30.205z"/>
			</g>
		</g>
		<g>
			<g>
				<path fill="#FFFFFF" d="M-181.9,30.205h-2.117c-0.585,0-1.06,0.474-1.06,1.059c0,0.584,0.475,1.059,1.06,1.059h2.117
					c0.586,0,1.059-0.475,1.059-1.059C-180.841,30.679-181.314,30.205-181.9,30.205z"/>
			</g>
		</g>
		<g>
			<g>
				<path fill="#FFFFFF" d="M-164.955,83.157h-2.118c-0.585,0-1.059,0.474-1.059,1.06c0,0.585,0.474,1.059,1.059,1.059h2.118
					c0.584,0,1.06-0.474,1.06-1.059C-163.895,83.631-164.37,83.157-164.955,83.157z"/>
			</g>
		</g>
		<g>
			<g>
				<path fill="#FFFFFF" d="M-142.715,77.947c0,0,0,0,0-0.085v-2.934c-0.003-0.796,0.094-1.589,0.287-2.361l0.91-3.634
					c0.627-2.504,0.814-5.098,0.551-7.666l-1.059-6.684c-0.508-3.07-3.168-5.32-6.281-5.315h-0.76
					c-0.129,0.002-0.256,0.028-0.373,0.074c-0.984-1.361-2.557-2.175-4.236-2.192h-0.688c-0.473-0.001-0.939,0.104-1.366,0.306
					c-0.97-1.505-2.636-2.417-4.427-2.424h-0.562c-0.361,0.002-0.72,0.066-1.059,0.189V34.441c0-2.339-1.896-4.236-4.236-4.236
					h-0.201c-2.237-0.005-4.091,1.729-4.237,3.961l-1.523,24.02c-1.301-0.466-2.479-1.215-3.454-2.193l-0.953-0.952
					c-2.066-2.061-5.41-2.061-7.478,0l-0.603,0.582c-0.739,0.742-0.824,1.912-0.201,2.753l2.001,2.691
					c0.36,0.495,0.692,1.011,0.995,1.545l0.224,0.424c2.454,4.188,5.944,7.674,10.134,10.126c0.655,0.377,1.058,1.075,1.059,1.83
					v2.871c-0.002,0.039-0.002,0.077,0,0.116c-1.408,1.059-2.117,2.753-2.117,5.179v3.177c0,0.586,0.473,1.06,1.058,1.06
					c0.584,0,1.059-0.474,1.059-1.06v-3.177c0-3.05,1.186-4.235,4.236-4.235h19.063c3.177,0,4.235,1.059,4.235,4.235h-18.003
					c-0.584,0-1.059,0.474-1.059,1.06c0,0.585,0.475,1.059,1.059,1.059h18.003v1.059c0,0.586,0.475,1.06,1.06,1.06
					c0.584,0,1.06-0.474,1.06-1.06v-3.177C-140.596,80.679-141.317,78.922-142.715,77.947z M-143.434,68.468l-0.912,3.632
					c-0.278,0.921-0.441,1.869-0.485,2.829v2.118c-0.696-0.16-1.406-0.241-2.119-0.243h-19.063
					c-0.713-0.002-1.424,0.081-2.118,0.243v-2.045c0.01-1.522-0.799-2.934-2.118-3.696c-3.864-2.258-7.084-5.47-9.351-9.329
					l-0.181-0.382c-0.354-0.601-0.744-1.181-1.165-1.736l-2.012-2.722l0.583-0.593c1.241-1.239,3.25-1.239,4.49,0l0.953,0.954
					c1.336,1.346,2.99,2.337,4.808,2.881l-0.138,2.233c-0.042,0.575,0.381,1.077,0.954,1.135h0.106c0.561,0,1.025-0.437,1.058-0.996
					l1.821-28.447c0.074-1.114,1-1.982,2.119-1.98h0.191c1.169,0,2.119,0.948,2.119,2.118v18.004c0,0.584,0.474,1.059,1.058,1.059
					c0.585,0,1.059-0.475,1.059-1.059v-4.236c0-0.585,0.475-1.059,1.059-1.059h0.562c1.593-0.017,2.955,1.153,3.176,2.731
					l0.499,3.77c0.074,0.526,0.527,0.917,1.059,0.912h0.149c0.579-0.076,0.988-0.608,0.912-1.188c0-0.005-0.002-0.013-0.002-0.013
					l-0.541-3.789c0,0,0-0.074,0-0.116c0.158-0.11,0.346-0.178,0.541-0.189h0.646c1.569-0.022,2.92,1.109,3.176,2.658l0.414,2.817
					c0.088,0.514,0.537,0.886,1.061,0.879h0.178c0.578-0.09,0.974-0.632,0.885-1.21c-0.002-0.009-0.002-0.021-0.002-0.021
					l-0.469-2.825c0-0.064,0-0.129,0-0.191h0.242c2.105-0.026,3.91,1.499,4.237,3.58l1.058,6.628
					C-142.703,63.892-142.874,66.22-143.434,68.468z"/>
			</g>
		</g>
	</g>
</g>
<g>
	<path fill="#27DC95" d="M-164.05,185.946h-26.054c-0.368,0-0.667,0.296-0.667,0.665c0,0.367,0.299,0.665,0.667,0.665h26.054
		c0.326,2.259,2.268,4.001,4.615,4.001c2.572,0,4.664-2.093,4.664-4.666s-2.092-4.666-4.664-4.666
		C-161.782,181.945-163.724,183.686-164.05,185.946z"/>
	<path fill="#27DC95" d="M-177.64,171.943h-12.463c-0.368,0-0.667,0.3-0.667,0.667c0,0.369,0.299,0.667,0.667,0.667h12.421
		c0.264,2.4,2.304,4.276,4.774,4.276c2.47,0,4.511-1.876,4.774-4.276h12.697c0.369,0,0.666-0.298,0.666-0.667
		c0-0.367-0.297-0.667-0.666-0.667h-12.738c-0.387-2.268-2.359-4-4.733-4C-175.282,167.943-177.256,169.676-177.64,171.943z"/>
	<path fill="#27DC95" d="M-186.104,153.943c-2.572,0-4.667,2.094-4.667,4.666c0,2.573,2.094,4.668,4.667,4.668
		c2.347,0,4.289-1.744,4.614-4h26.054c0.369,0,0.666-0.301,0.666-0.668s-0.297-0.665-0.666-0.665h-26.054
		C-181.815,155.684-183.757,153.943-186.104,153.943z"/>
</g>
<g>
	<g>
		<path fill="#9D9D9E" d="M-191.193,187.51c0,2.097,1.706,3.797,3.795,3.797h28.41c2.096,0,3.795-1.707,3.795-3.797v-28.407
			c0-2.098-1.707-3.796-3.795-3.796h-28.41c-2.096,0-3.795,1.707-3.795,3.796V187.51z M-158.988,189.505h-28.41
			c-1.096,0-1.993-0.897-1.993-1.995v-4.743l6.827-6.826l5.833,5.832c0.353,0.354,0.919,0.354,1.272,0l10.533-10.531l7.931,7.928
			v8.341C-156.995,188.607-157.892,189.505-158.988,189.505z M-187.398,157.108h28.41c1.096,0,1.993,0.898,1.993,1.994v17.514
			l-7.299-7.29c-0.352-0.353-0.918-0.353-1.271,0l-10.534,10.535l-5.832-5.832c-0.354-0.354-0.92-0.354-1.273,0l-6.187,6.185
			v-21.111C-189.391,158.007-188.494,157.108-187.398,157.108z"/>
		<path fill="#9D9D9E" d="M-180.034,169.731c2.53,0,4.582-2.061,4.582-4.584c0-2.521-2.06-4.582-4.582-4.582
			s-4.583,2.061-4.583,4.582C-184.617,167.671-182.564,169.731-180.034,169.731z M-180.034,162.368c1.537,0,2.78,1.25,2.78,2.779
			c0,1.531-1.25,2.782-2.78,2.782s-2.781-1.251-2.781-2.782C-182.815,163.618-181.571,162.368-180.034,162.368z"/>
	</g>
</g>
<g>
	<g>
		<path fill="#27DC95" d="M-173.115,155.307c-9.926,0-18.001,8.074-18.001,18s8.075,18,18.001,18c9.923,0,17.999-8.074,17.999-18
			S-163.192,155.307-173.115,155.307z M-173.115,189.091c-8.705,0-15.785-7.08-15.785-15.784s7.08-15.784,15.785-15.784
			c8.703,0,15.783,7.08,15.783,15.784S-164.412,189.091-173.115,189.091z"/>
		<circle fill="#27DC95" cx="-172.83" cy="166.131" r="1.853"/>
		<path fill="#27DC95" d="M-173.318,171.003c-0.611,0-1.106,0.498-1.106,1.107v9.416c0,0.611,0.495,1.108,1.106,1.108
			s1.109-0.497,1.109-1.108v-9.416C-172.208,171.499-172.707,171.003-173.318,171.003z"/>
	</g>
</g>
<g>
	<path fill="#27DC95" d="M-154.345,160.994h-30.158c-1.613,0-2.921,1.308-2.921,2.922v3.224v4.011v11.548
		c0,1.614,1.308,2.921,2.921,2.921h30.158c1.613,0,2.921-1.307,2.921-2.921v-11.553v-4.011v-3.224
		C-151.428,162.302-152.736,160.994-154.345,160.994z M-184.503,162.604h30.158c0.697,0,1.306,0.565,1.306,1.308v2.44h-32.771v-2.44
		C-185.81,163.218-185.242,162.604-184.503,162.604z M-153.04,170.318h-32.771v-2.396h32.771V170.318L-153.04,170.318z
		 M-154.345,184.002h-30.158c-0.698,0-1.307-0.566-1.307-1.308v-10.761h32.771v10.72
		C-153.04,183.392-153.607,184.002-154.345,184.002z M-156.788,176.246c0,0.437-0.347,0.782-0.782,0.782h-8.368
		c-0.437,0-0.782-0.346-0.782-0.782c0-0.436,0.346-0.783,0.782-0.783h8.323C-157.179,175.419-156.788,175.767-156.788,176.246z
		 M-156.788,180.515c0,0.437-0.347,0.783-0.782,0.783h-4.793c-0.436,0-0.783-0.347-0.783-0.783c0-0.435,0.348-0.783,0.783-0.783
		h4.793C-157.179,179.731-156.788,180.08-156.788,180.515z"/>
</g>
<g>
	<g>
		<path fill="#27DC95" d="M-156.05,167.989l-2.528-0.43c-0.263-0.85-0.602-1.67-1.016-2.45l1.491-2.085
			c0.631-0.888,0.533-2.098-0.243-2.863l-2.239-2.242c-0.422-0.421-0.979-0.654-1.572-0.654c-0.465,0-0.91,0.143-1.286,0.412
			l-2.091,1.49c-0.813-0.43-1.662-0.783-2.542-1.045l-0.42-2.498c-0.183-1.075-1.105-1.855-2.197-1.855h-3.166
			c-1.093,0-2.016,0.78-2.195,1.855l-0.437,2.559c-0.844,0.262-1.662,0.607-2.443,1.029l-2.068-1.488
			c-0.378-0.271-0.827-0.415-1.294-0.415c-0.594,0-1.158,0.233-1.572,0.655l-2.248,2.241c-0.766,0.767-0.872,1.978-0.242,2.866
			l1.505,2.111c-0.412,0.789-0.745,1.609-1,2.46l-2.496,0.421c-1.074,0.182-1.857,1.106-1.857,2.195v3.166
			c0,1.091,0.783,2.017,1.857,2.196l2.558,0.436c0.262,0.842,0.608,1.664,1.029,2.445l-1.48,2.061
			c-0.634,0.889-0.536,2.098,0.239,2.865l2.241,2.242c0.423,0.422,0.979,0.652,1.57,0.652c0.467,0,0.911-0.141,1.289-0.412
			l2.111-1.504c0.759,0.398,1.556,0.721,2.377,0.977l0.421,2.527c0.182,1.076,1.106,1.857,2.197,1.857h3.174
			c1.088,0,2.015-0.781,2.194-1.857l0.43-2.527c0.849-0.264,1.669-0.602,2.449-1.016l2.085,1.49
			c0.375,0.271,0.826,0.412,1.293,0.412l0,0c0.595,0,1.15-0.232,1.572-0.654l2.24-2.24c0.768-0.768,0.873-1.977,0.242-2.865
			l-1.489-2.09c0.412-0.789,0.76-1.609,1.015-2.451l2.527-0.424c1.076-0.178,1.857-1.104,1.857-2.192v-3.168
			C-154.194,169.095-154.976,168.169-156.05,167.989z M-156.223,173.353c0,0.096-0.067,0.178-0.166,0.193l-3.158,0.527
			c-0.399,0.066-0.716,0.358-0.813,0.743c-0.286,1.105-0.722,2.168-1.311,3.152c-0.202,0.346-0.188,0.775,0.046,1.105l1.858,2.617
			c0.052,0.074,0.045,0.188-0.022,0.256l-2.242,2.24c-0.052,0.055-0.104,0.059-0.143,0.059c-0.044,0-0.082-0.014-0.112-0.037
			l-2.608-1.857c-0.326-0.232-0.76-0.248-1.106-0.045c-0.985,0.586-2.046,1.023-3.151,1.309c-0.392,0.098-0.685,0.422-0.744,0.814
			l-0.534,3.156c-0.015,0.1-0.099,0.168-0.194,0.168h-3.168c-0.097,0-0.18-0.068-0.194-0.168l-0.529-3.156
			c-0.065-0.4-0.357-0.717-0.743-0.814c-1.074-0.277-2.112-0.707-3.081-1.264c-0.159-0.09-0.341-0.133-0.513-0.133
			c-0.203,0-0.415,0.059-0.586,0.186l-2.632,1.875c-0.038,0.02-0.075,0.037-0.113,0.037c-0.03,0-0.09-0.008-0.144-0.061l-2.241-2.24
			c-0.067-0.068-0.075-0.174-0.022-0.256l1.851-2.596c0.234-0.33,0.248-0.768,0.046-1.113c-0.587-0.979-1.04-2.037-1.324-3.143
			c-0.106-0.385-0.421-0.679-0.812-0.745l-3.183-0.543c-0.098-0.014-0.165-0.096-0.165-0.195v-3.166c0-0.098,0.067-0.18,0.165-0.195
			l3.137-0.527c0.398-0.066,0.722-0.359,0.819-0.75c0.279-1.105,0.708-2.173,1.285-3.16c0.204-0.344,0.182-0.773-0.053-1.096
			l-1.871-2.635c-0.054-0.074-0.047-0.188,0.022-0.254l2.241-2.241c0.051-0.053,0.104-0.062,0.142-0.062
			c0.047,0,0.083,0.016,0.112,0.037l2.596,1.854c0.33,0.23,0.768,0.248,1.113,0.043c0.978-0.586,2.037-1.039,3.144-1.323
			c0.383-0.105,0.677-0.421,0.744-0.813l0.541-3.179c0.016-0.099,0.099-0.167,0.196-0.167h3.167c0.099,0,0.18,0.068,0.194,0.167
			l0.525,3.135c0.069,0.399,0.361,0.722,0.755,0.82c1.134,0.286,2.217,0.728,3.225,1.323c0.346,0.202,0.773,0.188,1.104-0.045
			l2.595-1.865c0.038-0.021,0.076-0.037,0.112-0.037c0.032,0,0.092,0.007,0.146,0.06l2.24,2.239
			c0.066,0.068,0.075,0.175,0.022,0.256l-1.857,2.61c-0.232,0.324-0.249,0.761-0.045,1.106c0.586,0.985,1.021,2.045,1.309,3.152
			c0.098,0.391,0.421,0.682,0.809,0.742l3.161,0.536c0.099,0.014,0.166,0.097,0.166,0.194v3.168H-156.223z"/>
		<path fill="#27DC95" d="M-172.205,163.995c-4.287,0-7.769,3.484-7.769,7.768c0,4.288,3.481,7.771,7.769,7.771
			c4.285,0,7.768-3.482,7.768-7.771C-164.437,167.479-167.919,163.995-172.205,163.995z M-172.205,177.5
			c-3.167,0-5.737-2.57-5.737-5.737c0-3.166,2.57-5.736,5.737-5.736c3.165,0,5.736,2.57,5.736,5.736
			C-166.468,174.93-169.04,177.5-172.205,177.5z"/>
	</g>
</g>
<g>
	<circle fill="#F2F2F2" cx="596.5" cy="59.001" r="95"/>
	<g>
		<g>
			<path fill="#27DC95" d="M642.495,17.113h-78.848c-1.811,0-3.287,1.474-3.287,3.285v3.284h-3.283
				c-1.813,0-3.285,1.474-3.285,3.286v3.287h-3.285c-1.813-0.002-3.285,1.472-3.285,3.284v64.063c0,1.813,1.473,3.285,3.285,3.285
				h78.848c1.811,0,3.285-1.473,3.285-3.285v-3.285h3.285c1.811,0,3.283-1.473,3.283-3.285v-3.285h3.287
				c1.813,0,3.285-1.475,3.285-3.285V20.398C645.78,18.587,644.308,17.113,642.495,17.113z M550.507,33.54h78.848l0.002,36.697
				l-8.623-9.854c-0.625-0.717-1.848-0.717-2.473,0l-10.408,11.895l-28.33-25.182c-0.623-0.557-1.559-0.557-2.182,0L550.507,70.95
				V33.54z M629.358,92.69v4.912h-78.852v-22.26l27.926-24.823l28.477,25.312c0.324,0.291,0.758,0.422,1.193,0.412
				c0.439-0.027,0.846-0.227,1.133-0.559l10.264-11.725l9.859,11.268v17.436c0,0.002-0.004,0.008-0.004,0.012
				C629.354,92.681,629.358,92.687,629.358,92.69z M635.925,91.032h-3.285V33.54c0-1.813-1.475-3.286-3.285-3.286h-72.277v-3.285
				h78.848V91.032z M642.495,84.462h-3.287V26.969c0-1.813-1.473-3.286-3.285-3.286h-72.275v-3.284h78.848V84.462z"/>
		</g>
	</g>
</g>
<g>
	<circle fill="#F2F2F2" cx="596.5" cy="58.999" r="95"/>
	<g>
		<path fill="#27DC95" d="M634.178,97.719h-75.355c-6.246,0-11.326-5.08-11.326-11.326V40.456c0-6.246,5.08-11.327,11.326-11.327
			h15.375l1.346-4.541c0.55-2.485,2.822-4.307,5.492-4.307h30.931c2.596,0,4.894,1.813,5.5,4.33l0.036,0.155l1.228,4.363h15.45
			c6.246,0,11.326,5.081,11.326,11.327v45.935C645.504,92.639,640.422,97.719,634.178,97.719z M558.822,32.904
			c-4.165,0-7.551,3.388-7.551,7.552v45.935c0,4.165,3.386,7.552,7.551,7.552h75.355c4.163,0,7.55-3.387,7.55-7.552V40.456
			c0-4.166-3.387-7.552-7.55-7.552h-18.309l-2.067-7.372c-0.189-0.856-0.963-1.478-1.838-1.478h-30.931
			c-0.888,0-1.645,0.609-1.839,1.479l-2.181,7.37H558.822z M596.503,86.306c-13.212,0-23.963-10.746-23.963-23.957
			c0-13.214,10.751-23.96,23.963-23.96c13.208,0,23.955,10.749,23.955,23.96C620.458,75.558,609.711,86.306,596.503,86.306z
			 M596.503,42.161c-11.132,0-20.187,9.055-20.187,20.186c0,11.13,9.055,20.183,20.187,20.183c11.128,0,20.18-9.055,20.18-20.183
			C616.683,51.216,607.629,42.161,596.503,42.161z M631.74,39.912c-1.926,0-3.483,1.562-3.483,3.484s1.558,3.482,3.483,3.482
			c1.924,0,3.48-1.56,3.48-3.482C635.219,41.474,633.662,39.912,631.74,39.912z"/>
	</g>
</g>
<g>
	<path fill="#27DC95" d="M-200.719,181.726c-1.907-1.637-4.322-2.54-6.778-2.54h-14.416v-10.18c0-4.867-1.448-8.414-4.324-10.535
		c-4.533-3.316-10.682-1.449-10.956-1.367c-1.05,0.341-1.761,1.302-1.761,2.396v12.276c0,3.736-1.785,6.904-5.333,9.445
		c-2.685,1.929-5.435,2.813-5.793,2.914l-0.25,0.068c-0.944-1.074-2.33-1.744-3.881-1.744h-9.572c-2.855,0-5.184,2.327-5.184,5.185
		v31.394c0,2.857,2.329,5.185,5.184,5.185h9.612c1.259,0,2.435-0.463,3.314-1.216c1.934,1.89,4.556,3.043,7.389,3.043h30.075
		c3.022,0,5.688-0.733,7.724-2.1c2.601-1.765,4.218-4.552,4.678-8.123l3.884-24.131C-196.5,187.959-197.884,184.135-200.719,181.726
		L-200.719,181.726z M-254.025,219.037c0,0.087-0.061,0.147-0.146,0.147h-9.612c-0.083,0-0.145-0.061-0.145-0.147v-31.394
		c0-0.087,0.063-0.147,0.145-0.147h9.612c0.085,0,0.146,0.061,0.146,0.147V219.037z M-202.08,190.917l-3.884,24.176
		c0,0.021,0,0.063-0.021,0.105c-0.167,1.449-0.712,5.836-7.408,5.836h-30.075c-2.684,0-5.038-2.018-5.455-4.683
		c-0.023-0.103-0.042-0.21-0.063-0.293V189.07l0.148-0.043c0.039,0,0.06-0.022,0.104-0.022c0.146-0.04,3.712-1.046,7.261-3.586
		c4.932-3.503,7.555-8.23,7.555-13.644v-10.197c1.385-0.15,3.296-0.082,4.701,0.943c1.513,1.111,2.266,3.299,2.266,6.467v12.695
		c0,1.383,1.135,2.52,2.52,2.52h16.936c1.26,0,2.499,0.48,3.505,1.318C-202.48,186.826-201.767,188.883-202.08,190.917
		L-202.08,190.917z M-202.08,190.917"/>
</g>
<g>
	<path fill="#ACFCD9" d="M729.375-86c-80.082,0-145,64.919-145,144.999c0,80.081,64.918,145.001,145,145.001
		c80.08,0,145-64.92,145-145.001C874.375-21.081,809.455-86,729.375-86z M729.375,192.279c-73.608,0-133.28-59.671-133.28-133.28
		c0-73.608,59.672-133.279,133.28-133.279s133.28,59.671,133.28,133.279C862.655,132.608,802.983,192.279,729.375,192.279z"/>
	<linearGradient id="SVGID_1_" gradientUnits="userSpaceOnUse" x1="752.4648" y1="204" x2="752.4648" y2="-85.9995">
		<stop  offset="0" style="stop-color:#44F6B0"/>
		<stop  offset="1" style="stop-color:#27DC95"/>
	</linearGradient>
	<path fill="url(#SVGID_1_)" d="M729.375-86v0.006c-0.035-0.002-0.07-0.006-0.108-0.006c-3.228,0-5.844,2.616-5.844,5.843
		s2.616,5.845,5.844,5.845c0.038,0,0.073-0.003,0.108-0.005v0.037c73.608,0,133.28,59.671,133.28,133.279
		c0,73.609-59.672,133.28-133.28,133.28c-33.883,0-64.813-12.645-88.328-33.469c-1.094-1.282-2.716-2.098-4.533-2.098
		c-3.291,0-5.958,2.666-5.958,5.958c0,2.239,1.236,4.189,3.063,5.206C659.162,190.359,692.673,204,729.375,204
		c80.08,0,145-64.92,145-145.001C874.375-21.081,809.455-86,729.375-86z"/>
</g>
<g>
	<g>
		<path fill="#ADADAD" d="M122.785-130.592l0.088-0.235l-63.914-24.969l-63.811,25.228l-0.208-0.083v0.162l-0.01,0.004l0.01,0.029
			v80.088l63.99,25.082l64-25.082v-80.281L122.785-130.592z M58.901-150.888l21.677,7.764l-59.095,22.943l-20.019-7.897
			L58.901-150.888z M56.649-30.943L32.683-40.62l-12.027-4.52l-21.143-8.34v-70.453l20.929,8.257v17.615l1.867-0.52l1.261,1.732
			l1.755-0.41l1.698,1.795l1.483-0.511l2.395,2.376v-17.953l1.861,0.735l23.887,9.421L56.649-30.943L56.649-30.943z M58.936-105.404
			l-23.368-9.219l57.631-23.357l23.77,9.682L58.936-105.404z M118.36-53.479L61.22-30.943v-70.452l57.135-22.539v70.453
			L118.36-53.479L118.36-53.479z"/>
	</g>
</g>
<g>
	<path fill="#27DC95" d="M198.48-31.23h-58.775c0.168,32.443,26.513,58.695,58.996,58.695c32.588,0,59.004-26.417,59.004-59.003
		c0-32.586-26.416-59.004-59.004-59.004c-0.073,0-0.146,0.006-0.221,0.006V-31.23z"/>
	<g>
		<defs>
			<circle id="SVGID_2_" cx="198.398" cy="-31.763" r="52.932"/>
		</defs>
		<clipPath id="SVGID_3_">
			<use xlink:href="#SVGID_2_"  overflow="visible"/>
		</clipPath>
		<g transform="matrix(1 0 0 1 0 -7.629395e-006)" clip-path="url(#SVGID_3_)">
			
				<image overflow="visible" width="128" height="127" xlink:href="15064AB0.jpg"  transform="matrix(0.9716 0 0 0.9716 138.7305 -91.5176)">
			</image>
		</g>
	</g>
</g>
<g>
	<path fill="#FF3300" d="M318.044-90.81c-0.077,0-0.155,0.006-0.233,0.006v58.816h0.529l-0.529,1.598v2.113l-1.572,4.587
		l1.398-2.896l26.811,54.319c21.154-9.934,35.809-31.417,35.809-56.335C380.256-62.957,352.402-90.81,318.044-90.81z"/>
	<g>
		<defs>
			<circle id="SVGID_4_" cx="318.065" cy="-28.601" r="55.81"/>
		</defs>
		<clipPath id="SVGID_5_">
			<use xlink:href="#SVGID_4_"  overflow="visible"/>
		</clipPath>
		<g transform="matrix(1 0 0 1 -1.525879e-005 7.629395e-006)" clip-path="url(#SVGID_5_)">
			
				<image overflow="visible" width="128" height="128" xlink:href="15064AB1.jpg"  transform="matrix(1.0244 0 0 1.0244 250.2119 -92.0366)">
			</image>
		</g>
	</g>
</g>
<g>
	<defs>
		<circle id="SVGID_6_" cx="189.174" cy="75.283" r="25"/>
	</defs>
	<clipPath id="SVGID_7_">
		<use xlink:href="#SVGID_6_"  overflow="visible"/>
	</clipPath>
	<g clip-path="url(#SVGID_7_)">
		
			<image overflow="visible" width="58" height="58" xlink:href="15064AB7.jpg"  transform="matrix(0.8629 0 0 0.8629 164.0352 49.9849)">
		</image>
	</g>
	<g transform="matrix(1 0 0 1 1.525879e-005 0)" clip-path="url(#SVGID_7_)">
		
			<image overflow="visible" width="128" height="127" xlink:href="15064AB2.jpg"  transform="matrix(0.5306 0 0 0.5306 157.2305 44.5278)">
		</image>
	</g>
</g>
<g>
	<path d="M-62.098-55.47h-23.078l7.255-7.256l-1.815-1.815l-10.361,10.363l10.361,10.368l1.815-1.814l-7.255-7.258h23.078V-55.47z
		 M-69.365-55.47"/>
</g>
<g>
	<g>
		<path fill="#808080" d="M278.549,51.522v-4.245c0-0.223-0.181-0.404-0.404-0.404h-4.246c-0.221,0-0.402,0.181-0.402,0.404v4.245
			c0,0.224,0.182,0.404,0.402,0.404h4.246C278.368,51.926,278.549,51.746,278.549,51.522z"/>
		<path fill="#808080" d="M278.549,58.595v-4.244c0-0.223-0.181-0.404-0.404-0.404h-4.246c-0.221,0-0.402,0.181-0.402,0.404v4.244
			c0,0.225,0.182,0.405,0.402,0.405h4.246C278.368,59,278.549,58.819,278.549,58.595z"/>
		<path fill="#808080" d="M278.549,65.669v-4.244c0-0.223-0.181-0.404-0.404-0.404h-4.246c-0.221,0-0.402,0.182-0.402,0.404v4.244
			c0,0.224,0.182,0.404,0.402,0.404h4.246C278.368,66.073,278.549,65.893,278.549,65.669z"/>
	</g>
</g>
<g>
	<g>
		<circle fill="#EAEAEA" cx="223.174" cy="134.283" r="34"/>
	</g>
	<g>
		
			<image overflow="visible" opacity="0.2" width="70" height="70" xlink:href="15064AB0.png"  transform="matrix(1 0 0 1 189.1738 101.2842)">
		</image>
		<g>
			<circle fill="#27DC95" cx="223.174" cy="134.283" r="28.511"/>
		</g>
	</g>
	<g>
		<g>
			<path fill="#FFFFFF" d="M229.26,138.342c3.334-2.028,5.508-5.651,5.508-9.854c0-6.377-5.217-11.595-11.594-11.595
				s-11.594,5.218-11.594,11.595c0,4.202,2.174,7.825,5.507,9.854c-5.796,2.176-10.145,7.247-11.304,13.333h2.897
				c1.45-6.665,7.393-11.592,14.493-11.592c7.102,0,13.043,4.927,14.492,11.592h2.898
				C239.404,145.444,235.057,140.371,229.26,138.342z M214.479,128.488c0-4.783,3.913-8.694,8.695-8.694
				c4.783,0,8.695,3.911,8.695,8.694c0,4.782-3.912,8.694-8.695,8.694C218.392,137.183,214.479,133.271,214.479,128.488z"/>
		</g>
	</g>
</g>
<g>
	<g>
		<circle fill="#EAEAEA" cx="305.569" cy="134.283" r="34"/>
	</g>
	<g>
		
			<image overflow="visible" opacity="0.2" width="70" height="70" xlink:href="15064AB1.png"  transform="matrix(1 0 0 1 271.5693 101.2842)">
		</image>
		<g>
			<circle fill="#FFFFFF" cx="305.569" cy="134.283" r="28.511"/>
		</g>
	</g>
	<g>
		<g>
			<path fill="#27DC95" d="M310.826,135.464c3.334-2.029,5.507-5.652,5.507-9.855c0-6.376-5.218-11.594-11.594-11.594
				s-11.594,5.218-11.594,11.594c0,4.203,2.173,7.826,5.507,9.855c-5.797,2.174-10.145,7.246-11.303,13.333h2.898
				c1.449-6.667,7.391-11.594,14.491-11.594c7.102,0,13.044,4.927,14.492,11.594h2.898
				C320.971,142.564,316.623,137.492,310.826,135.464z M296.044,125.608c0-4.782,3.913-8.694,8.695-8.694s8.695,3.912,8.695,8.694
				s-3.913,8.695-8.695,8.695S296.044,130.391,296.044,125.608z"/>
		</g>
	</g>
</g>
<g>
	<g>
		<circle fill="#EAEAEA" cx="373.874" cy="59" r="34"/>
	</g>
	<g>
		
			<image overflow="visible" opacity="0.2" width="70" height="70" xlink:href="15064ABF.png"  transform="matrix(1 0 0 1 339.874 26)">
		</image>
		<g>
			<circle fill="#FFFFFF" cx="373.875" cy="59" r="28.639"/>
		</g>
	</g>
	<g>
		<g id="Statics_10_">
			<g>
				<path fill="#27DC95" d="M389.336,41.714c0.31-0.469,0.181-1.1-0.29-1.41c-0.471-0.313-1.102-0.184-1.41,0.288l-3.769,5.704
					c-0.158-0.028-0.313-0.051-0.475-0.051c-1.685,0-3.057,1.372-3.057,3.058c0,0.322,0.063,0.628,0.156,0.924l-3.64,4.639
					c-0.468-0.294-1.018-0.471-1.61-0.471c-1.643,0-2.979,1.306-3.043,2.934l-5.758,3.352c-0.559-0.719-1.425-1.193-2.405-1.193
					c-1.685,0-3.056,1.374-3.056,3.059c0,0.662,0.218,1.273,0.575,1.774l-4.482,6.833c-0.311,0.472-0.179,1.103,0.292,1.411
					c0.172,0.115,0.367,0.168,0.558,0.168c0.333,0,0.659-0.162,0.854-0.46l4.456-6.791c0.258,0.069,0.525,0.12,0.804,0.12
					c1.643,0,2.979-1.306,3.044-2.936l5.758-3.35c0.559,0.719,1.422,1.192,2.404,1.192c1.685,0,3.056-1.371,3.056-3.057
					c0-0.322-0.063-0.63-0.155-0.924l3.636-4.639c0.47,0.294,1.02,0.471,1.61,0.471c1.687,0,3.059-1.372,3.059-3.056
					c0-0.781-0.306-1.487-0.787-2.027L389.336,41.714z M364.036,63.563c-0.562,0-1.019-0.455-1.019-1.018
					c0-0.562,0.457-1.021,1.019-1.021c0.561,0,1.019,0.459,1.019,1.021C365.055,63.108,364.597,63.563,364.036,63.563z
					 M375.242,58.469c-0.563,0-1.02-0.456-1.02-1.018c0-0.561,0.457-1.018,1.02-1.018s1.02,0.458,1.02,1.018
					C376.262,58.014,375.805,58.469,375.242,58.469z M383.393,50.321c-0.563,0-1.021-0.458-1.021-1.018
					c0-0.563,0.458-1.018,1.021-1.018c0.561,0,1.017,0.456,1.017,1.018C384.409,49.863,383.953,50.321,383.393,50.321z
					 M363.018,70.696c-0.563,0-1.02,0.455-1.02,1.016c0,0.563,0.457,1.021,1.02,1.021s1.019-0.458,1.019-1.021
					C364.036,71.151,363.58,70.696,363.018,70.696z M368.111,70.696c-0.563,0-1.02,0.455-1.02,1.016c0,0.563,0.456,1.021,1.02,1.021
					s1.018-0.458,1.018-1.021C369.129,71.151,368.675,70.696,368.111,70.696z M373.205,70.696c-0.564,0-1.021,0.455-1.021,1.016
					c0,0.563,0.456,1.021,1.021,1.021c0.563,0,1.018-0.458,1.018-1.021C374.223,71.151,373.77,70.696,373.205,70.696z
					 M378.298,70.696c-0.563,0-1.02,0.455-1.02,1.016c0,0.563,0.457,1.021,1.02,1.021c0.565,0,1.019-0.458,1.019-1.021
					C379.316,71.151,378.863,70.696,378.298,70.696z M383.393,70.696c-0.566,0-1.021,0.455-1.021,1.016
					c0,0.563,0.454,1.021,1.021,1.021c0.563,0,1.017-0.458,1.017-1.021C384.409,71.151,383.955,70.696,383.393,70.696z
					 M388.483,70.696c-0.563,0-1.017,0.455-1.017,1.016c0,0.563,0.453,1.021,1.017,1.021c0.566,0,1.02-0.458,1.02-1.021
					C389.503,71.151,389.05,70.696,388.483,70.696z M357.924,67.638c0.563,0,1.02-0.455,1.02-1.018c0-0.562-0.457-1.019-1.02-1.019
					s-1.018,0.457-1.018,1.019C356.906,67.183,357.361,67.638,357.924,67.638z M357.924,62.546c0.563,0,1.02-0.456,1.02-1.021
					c0-0.561-0.457-1.018-1.02-1.018s-1.018,0.457-1.018,1.018C356.906,62.09,357.361,62.546,357.924,62.546z M357.924,57.451
					c0.563,0,1.02-0.456,1.02-1.018c0-0.561-0.457-1.018-1.02-1.018s-1.018,0.456-1.018,1.018S357.361,57.451,357.924,57.451z
					 M357.924,52.357c0.563,0,1.02-0.454,1.02-1.018c0-0.561-0.457-1.018-1.02-1.018s-1.018,0.458-1.018,1.018
					C356.906,51.905,357.361,52.357,357.924,52.357z M357.924,47.265c0.563,0,1.02-0.456,1.02-1.02c0-0.561-0.457-1.018-1.02-1.018
					s-1.018,0.458-1.018,1.018C356.906,46.813,357.361,47.265,357.924,47.265z M357.924,42.17c0.563,0,1.02-0.454,1.02-1.017
					c0-0.563-0.457-1.02-1.02-1.02s-1.018,0.458-1.018,1.02C356.906,41.719,357.361,42.17,357.924,42.17z"/>
			</g>
		</g>
	</g>
</g>
<g>
	<g>
		<circle fill="#EAEAEA" cx="418.939" cy="59" r="34"/>
	</g>
	<g>
		
			<image overflow="visible" opacity="0.2" width="70" height="70" xlink:href="15064AB2.png"  transform="matrix(1 0 0 1 384.9395 26)">
		</image>
		<g>
			<circle fill="#27DC95" cx="418.94" cy="59" r="28.638"/>
		</g>
	</g>
	<g>
		<g id="Statics">
			<g>
				<path fill="#FFFFFF" d="M435.665,43.734c0.312-0.47,0.182-1.101-0.288-1.411c-0.47-0.313-1.101-0.183-1.411,0.288l-3.768,5.704
					c-0.158-0.028-0.313-0.051-0.476-0.051c-1.684,0-3.057,1.372-3.057,3.058c0,0.322,0.063,0.628,0.157,0.924l-3.639,4.639
					c-0.469-0.293-1.019-0.47-1.611-0.47c-1.642,0-2.978,1.306-3.043,2.934l-5.758,3.351c-0.56-0.719-1.425-1.192-2.405-1.192
					c-1.685,0-3.057,1.373-3.057,3.058c0,0.662,0.219,1.274,0.577,1.774l-4.483,6.833c-0.311,0.473-0.18,1.103,0.291,1.411
					c0.172,0.115,0.367,0.168,0.559,0.168c0.333,0,0.658-0.162,0.854-0.459l4.455-6.792c0.258,0.07,0.527,0.121,0.805,0.121
					c1.643,0,2.979-1.307,3.043-2.937l5.758-3.35c0.559,0.72,1.424,1.191,2.405,1.191c1.684,0,3.056-1.37,3.056-3.056
					c0-0.322-0.063-0.631-0.156-0.924l3.636-4.639c0.47,0.293,1.02,0.471,1.611,0.471c1.685,0,3.057-1.372,3.057-3.056
					c0-0.781-0.303-1.487-0.785-2.027L435.665,43.734z M410.367,65.583c-0.563,0-1.02-0.456-1.02-1.019
					c0-0.561,0.457-1.02,1.02-1.02c0.562,0,1.019,0.459,1.019,1.02C411.386,65.127,410.929,65.583,410.367,65.583z M421.573,60.488
					c-0.563,0-1.02-0.455-1.02-1.018c0-0.561,0.456-1.019,1.02-1.019c0.562,0,1.019,0.458,1.019,1.019
					C422.592,60.033,422.135,60.488,421.573,60.488z M429.723,52.34c-0.563,0-1.02-0.458-1.02-1.018c0-0.563,0.457-1.018,1.02-1.018
					s1.018,0.455,1.018,1.018C430.74,51.883,430.283,52.34,429.723,52.34z M409.348,72.715c-0.563,0-1.018,0.455-1.018,1.017
					c0,0.563,0.455,1.02,1.018,1.02c0.564,0,1.02-0.457,1.02-1.02C410.367,73.17,409.912,72.715,409.348,72.715z M414.441,72.715
					c-0.563,0-1.019,0.455-1.019,1.017c0,0.563,0.456,1.02,1.019,1.02c0.564,0,1.019-0.457,1.019-1.02
					C415.46,73.17,415.006,72.715,414.441,72.715z M419.535,72.715c-0.563,0-1.02,0.455-1.02,1.017c0,0.563,0.456,1.02,1.02,1.02
					s1.019-0.457,1.019-1.02C420.554,73.17,420.1,72.715,419.535,72.715z M424.629,72.715c-0.563,0-1.019,0.455-1.019,1.017
					c0,0.563,0.455,1.02,1.019,1.02s1.019-0.457,1.019-1.02C425.647,73.17,425.192,72.715,424.629,72.715z M429.723,72.715
					c-0.564,0-1.02,0.455-1.02,1.017c0,0.563,0.455,1.02,1.02,1.02c0.563,0,1.018-0.457,1.018-1.02
					C430.74,73.17,430.286,72.715,429.723,72.715z M434.814,72.715c-0.563,0-1.018,0.455-1.018,1.017c0,0.563,0.455,1.02,1.018,1.02
					c0.564,0,1.02-0.457,1.02-1.02C435.834,73.17,435.379,72.715,434.814,72.715z M404.256,69.657c0.563,0,1.018-0.456,1.018-1.019
					c0-0.561-0.455-1.018-1.018-1.018c-0.564,0-1.02,0.457-1.02,1.018C403.236,69.201,403.691,69.657,404.256,69.657z
					 M404.256,64.564c0.563,0,1.018-0.455,1.018-1.02c0-0.562-0.455-1.019-1.018-1.019c-0.564,0-1.02,0.457-1.02,1.019
					C403.236,64.109,403.691,64.564,404.256,64.564z M404.256,59.471c0.563,0,1.018-0.456,1.018-1.019
					c0-0.561-0.455-1.018-1.018-1.018c-0.564,0-1.02,0.456-1.02,1.018C403.236,59.015,403.691,59.471,404.256,59.471z
					 M404.256,54.376c0.563,0,1.018-0.454,1.018-1.018c0-0.561-0.455-1.018-1.018-1.018c-0.564,0-1.02,0.457-1.02,1.018
					C403.236,53.925,403.691,54.376,404.256,54.376z M404.256,49.284c0.563,0,1.018-0.456,1.018-1.02
					c0-0.561-0.455-1.018-1.018-1.018c-0.564,0-1.02,0.457-1.02,1.018C403.236,48.833,403.691,49.284,404.256,49.284z
					 M404.256,44.19c0.563,0,1.018-0.454,1.018-1.016s-0.455-1.02-1.018-1.02c-0.564,0-1.02,0.458-1.02,1.02
					C403.236,43.738,403.691,44.19,404.256,44.19z"/>
			</g>
		</g>
	</g>
</g>
<g>
	<g>
		<circle fill="#EAEAEA" cx="59" cy="186.941" r="58"/>
	</g>
	<g>
		
			<image overflow="visible" opacity="0.2" width="114" height="114" xlink:href="15064AB3.png"  transform="matrix(1 0 0 1 3 131.9414)">
		</image>
		<g>
			<circle fill="#FFFFFF" cx="59" cy="186.941" r="50.673"/>
		</g>
	</g>
	<g>
		<path fill="#27DC95" d="M83.674,175.869c-1.439-1.234-3.262-1.916-5.114-1.916H67.681v-7.681c0-3.675-1.093-6.351-3.263-7.952
			c-3.422-2.5-8.061-1.094-8.268-1.029c-0.792,0.256-1.329,0.982-1.329,1.808v9.265c0,2.816-1.347,5.207-4.024,7.127
			c-2.025,1.455-4.102,2.121-4.372,2.199l-0.188,0.049c-0.712-0.809-1.758-1.314-2.929-1.314h-7.224c-2.154,0-3.91,1.758-3.91,3.912
			v23.691c0,2.154,1.756,3.91,3.91,3.91h7.255c0.948,0,1.836-0.348,2.501-0.916c1.458,1.426,3.438,2.295,5.575,2.295h22.694
			c2.281,0,4.292-0.553,5.829-1.582c1.963-1.332,3.182-3.438,3.53-6.131l2.931-18.211C86.857,180.574,85.813,177.689,83.674,175.869
			L83.674,175.869z M43.449,204.027c0,0.064-0.047,0.109-0.11,0.109h-7.255c-0.062,0-0.109-0.045-0.109-0.109v-23.691
			c0-0.066,0.048-0.109,0.109-0.109h7.255c0.063,0,0.11,0.043,0.11,0.109V204.027z M82.646,182.807l-2.931,18.242
			c0,0.016,0,0.049-0.016,0.082c-0.125,1.092-0.538,4.402-5.591,4.402H51.415c-2.025,0-3.802-1.521-4.117-3.535
			c-0.017-0.076-0.03-0.156-0.048-0.219v-20.365l0.112-0.035c0.029,0,0.046-0.016,0.079-0.016c0.109-0.031,2.8-0.789,5.478-2.707
			c3.723-2.643,5.701-6.211,5.701-10.293v-7.697c1.047-0.113,2.488-0.063,3.549,0.712c1.141,0.841,1.71,2.489,1.71,4.88v9.58
			c0,1.043,0.856,1.9,1.9,1.9h12.78c0.951,0,1.886,0.365,2.646,0.996C82.345,179.719,82.885,181.27,82.646,182.807L82.646,182.807z
			 M82.646,182.807"/>
	</g>
</g>
<g>
	<g>
		<circle fill="#EAEAEA" cx="170.274" cy="183.078" r="58"/>
	</g>
	<g>
		
			<image overflow="visible" opacity="0.2" width="114" height="114" xlink:href="9E8CBCF.png"  transform="matrix(1 0 0 1 114.2744 128.0781)">
		</image>
		<g>
			<circle fill="#FFFFFF" cx="170.274" cy="183.078" r="50.671"/>
		</g>
	</g>
	<g>
		<g>
			<path fill="#27DC95" d="M189.837,161.292c-5.146-5.149-11.973-7.981-19.25-7.981c-7.276,0-14.103,2.832-19.248,7.981
				c-9.948,9.948-10.64,25.876-1.716,36.621c-0.875,1.762-2.279,3.811-4.363,4.836c-1.002,0.495-1.566,1.565-1.393,2.672
				c0.174,1.104,1.025,1.97,2.129,2.142c0.518,0.081,1.254,0.162,2.153,0.162c2.405,0,5.952-0.564,9.577-3.18
				c4.041,2.178,8.463,3.236,12.85,3.236c7.047,0,14.024-2.729,19.272-7.981c5.147-5.146,7.978-11.977,7.978-19.254
				C197.826,173.268,194.984,166.438,189.837,161.292z M187.639,197.602c-7.772,7.774-19.803,9.315-29.266,3.754
				c-0.621-0.368-1.394-0.253-1.889,0.242c-0.045,0.022-0.092,0.057-0.127,0.092c-3.121,2.419-6.182,2.926-8.208,2.926h-0.011
				c2.338-1.704,3.811-4.238,4.674-6.207c0.137-0.335,0.162-0.681,0.08-1.003c-0.033-0.31-0.162-0.621-0.379-0.874
				c-8.428-9.523-7.99-24.035,1.012-33.041c9.406-9.406,24.707-9.406,34.103,0C197.045,172.9,197.045,188.193,187.639,197.602z
				 M170.587,178.635c-1.054,0-1.911,0.855-1.911,1.911c0,1.058,0.857,1.911,1.911,1.911c1.056,0,1.913-0.854,1.913-1.911
				C172.5,179.49,171.643,178.635,170.587,178.635z M180.442,178.635c-1.054,0-1.911,0.855-1.911,1.911
				c0,1.058,0.857,1.911,1.911,1.911c1.056,0,1.913-0.854,1.913-1.911C182.355,179.49,181.498,178.635,180.442,178.635z
				 M160.733,178.635c-1.058,0-1.911,0.855-1.911,1.911c0,1.058,0.854,1.911,1.911,1.911c1.056,0,1.911-0.854,1.911-1.911
				C162.645,179.49,161.789,178.635,160.733,178.635z"/>
		</g>
	</g>
</g>
<g>
	<g>
		<circle fill="#EAEAEA" cx="-5.069" cy="189.406" r="58"/>
	</g>
	<g>
		
			<image overflow="visible" opacity="0.2" width="114" height="114" xlink:href="9E8CBCD.png"  transform="matrix(1 0 0 1 -61.0693 134.4063)">
		</image>
		<g>
			<circle fill="#27DC95" cx="-5.069" cy="189.406" r="50.672"/>
		</g>
	</g>
	<g>
		<path fill="#FFFFFF" d="M19.606,178.336c-1.44-1.234-3.262-1.916-5.116-1.916H3.611v-7.683c0-3.673-1.093-6.349-3.263-7.95
			c-3.421-2.502-8.061-1.094-8.268-1.031c-0.792,0.258-1.328,0.982-1.328,1.808v9.265c0,2.818-1.348,5.209-4.024,7.127
			c-2.027,1.455-4.102,2.121-4.373,2.199l-0.188,0.051c-0.713-0.811-1.759-1.316-2.928-1.316h-7.225
			c-2.155,0-3.911,1.758-3.911,3.914v23.689c0,2.156,1.756,3.912,3.911,3.912h7.253c0.949,0,1.838-0.35,2.502-0.918
			c1.46,1.426,3.438,2.297,5.574,2.297H10.04c2.281,0,4.292-0.553,5.829-1.584c1.964-1.332,3.182-3.436,3.53-6.131l2.93-18.209
			C22.789,183.039,21.745,180.154,19.606,178.336L19.606,178.336z M-20.62,206.492c0,0.066-0.047,0.111-0.111,0.111h-7.253
			c-0.063,0-0.108-0.045-0.108-0.111v-23.689c0-0.066,0.046-0.111,0.108-0.111h7.253c0.064,0,0.111,0.045,0.111,0.111V206.492z
			 M18.578,185.271l-2.931,18.244c0,0.016,0,0.047-0.017,0.08c-0.125,1.094-0.538,4.402-5.591,4.402h-22.695
			c-2.024,0-3.8-1.521-4.114-3.533c-0.02-0.076-0.032-0.158-0.05-0.221v-20.365l0.112-0.033c0.029,0,0.046-0.016,0.079-0.016
			c0.11-0.031,2.801-0.791,5.478-2.707c3.725-2.643,5.702-6.211,5.702-10.295v-7.695c1.046-0.113,2.486-0.063,3.548,0.712
			c1.142,0.839,1.71,2.489,1.71,4.88v9.58c0,1.043,0.856,1.9,1.9,1.9h12.78c0.951,0,1.885,0.363,2.646,0.996
			C18.275,182.186,18.815,183.736,18.578,185.271L18.578,185.271z M18.578,185.271"/>
	</g>
</g>
<g>
	<g>
		<circle fill="#EAEAEA" cx="129.08" cy="194.268" r="58"/>
	</g>
	<g>
		
			<image overflow="visible" opacity="0.2" width="114" height="114" xlink:href="9E8CBCB.png"  transform="matrix(1 0 0 1 73.0791 139.2676)">
		</image>
		<g>
			<circle fill="#27DC95" cx="129.079" cy="194.268" r="50.672"/>
		</g>
	</g>
	<g>
		<g>
			<path fill="#FFFFFF" d="M148.642,172.482c-5.145-5.15-11.973-7.982-19.249-7.982c-7.277,0-14.104,2.832-19.25,7.982
				c-9.947,9.947-10.639,25.875-1.717,36.62c-0.873,1.762-2.277,3.811-4.361,4.836c-1.002,0.495-1.568,1.565-1.393,2.672
				c0.172,1.105,1.023,1.97,2.129,2.142c0.518,0.081,1.254,0.163,2.154,0.163c2.404,0,5.951-0.565,9.578-3.181
				c4.041,2.178,8.461,3.237,12.848,3.237c7.046,0,14.024-2.729,19.272-7.982c5.146-5.146,7.979-11.977,7.979-19.254
				C156.632,184.457,153.788,177.628,148.642,172.482z M146.444,208.791c-7.773,7.774-19.804,9.315-29.267,3.754
				c-0.621-0.368-1.393-0.253-1.889,0.242c-0.045,0.022-0.092,0.057-0.125,0.093c-3.123,2.419-6.184,2.925-8.209,2.925h-0.012
				c2.336-1.703,3.811-4.237,4.674-6.207c0.137-0.335,0.16-0.68,0.08-1.003c-0.033-0.31-0.162-0.621-0.379-0.874
				c-8.428-9.523-7.99-24.035,1.012-33.041c9.406-9.406,24.708-9.406,34.103,0C155.849,184.089,155.849,199.383,146.444,208.791z
				 M129.393,189.824c-1.055,0-1.912,0.855-1.912,1.911c0,1.058,0.857,1.911,1.912,1.911c1.056,0,1.911-0.854,1.911-1.911
				C131.304,190.68,130.448,189.824,129.393,189.824z M139.247,189.824c-1.055,0-1.91,0.855-1.91,1.911
				c0,1.058,0.855,1.911,1.91,1.911s1.912-0.854,1.912-1.911C141.159,190.68,140.302,189.824,139.247,189.824z M119.537,189.824
				c-1.057,0-1.91,0.855-1.91,1.911c0,1.058,0.854,1.911,1.91,1.911s1.912-0.854,1.912-1.911
				C121.449,190.68,120.594,189.824,119.537,189.824z"/>
		</g>
	</g>
</g>
</svg>
